<svg width="25" height="25" viewBox="0 0 25 25" fill="none" xmlns="http://www.w3.org/2000/svg">
<path d="M18 1.75C18 1.61739 18.0527 1.49021 18.1464 1.39645C18.2402 1.30268 18.3674 1.25 18.5 1.25C18.6326 1.25 18.7598 1.30268 18.8536 1.39645C18.9473 1.49021 19 1.61739 19 1.75V4.25H21.5C21.6326 4.25 21.7598 4.30268 21.8536 4.39645C21.9473 4.49021 22 4.61739 22 4.75C22 4.88261 21.9473 5.00979 21.8536 5.10355C21.7598 5.19732 21.6326 5.25 21.5 5.25H19V7.75C19 7.88261 18.9473 8.00979 18.8536 8.10355C18.7598 8.19732 18.6326 8.25 18.5 8.25C18.3674 8.25 18.2402 8.19732 18.1464 8.10355C18.0527 8.00979 18 7.88261 18 7.75V5.25H15.5C15.3674 5.25 15.2402 5.19732 15.1464 5.10355C15.0527 5.00979 15 4.88261 15 4.75C15 4.61739 15.0527 4.49021 15.1464 4.39645C15.2402 4.30268 15.3674 4.25 15.5 4.25H18V1.75ZM7 6.25C7 5.98478 7.10536 5.73043 7.29289 5.54289C7.48043 5.35536 7.73478 5.25 8 5.25H11.5C11.6326 5.25 11.7598 5.19732 11.8536 5.10355C11.9473 5.00979 12 4.88261 12 4.75C12 4.61739 11.9473 4.49021 11.8536 4.39645C11.7598 4.30268 11.6326 4.25 11.5 4.25H8C7.46957 4.25 6.96086 4.46071 6.58579 4.83579C6.21071 5.21086 6 5.71957 6 6.25V20.25C6 20.3429 6.02586 20.4339 6.07467 20.5129C6.12349 20.5919 6.19334 20.6557 6.27639 20.6972C6.35945 20.7387 6.45242 20.7563 6.5449 20.748C6.63738 20.7396 6.72572 20.7057 6.8 20.65L12.5 16.25L18.2 20.65C18.2743 20.7057 18.3626 20.7396 18.4551 20.748C18.5476 20.7563 18.6406 20.7387 18.7236 20.6972C18.8067 20.6557 18.8765 20.5919 18.9253 20.5129C18.9741 20.4339 19 20.3429 19 20.25V11.75C19 11.6174 18.9473 11.4902 18.8536 11.3964C18.7598 11.3027 18.6326 11.25 18.5 11.25C18.3674 11.25 18.2402 11.3027 18.1464 11.3964C18.0527 11.4902 18 11.6174 18 11.75V19.23L12.8 15.23C12.7135 15.1651 12.6082 15.13 12.5 15.13C12.3918 15.13 12.2865 15.1651 12.2 15.23L7 19.23V6.25Z" fill="black"/>
</svg>
