<svg width="25" height="25" viewBox="0 0 25 25" fill="none" xmlns="http://www.w3.org/2000/svg">
<path fill-rule="evenodd" clip-rule="evenodd" d="M4.88965 12.5C4.88965 13.05 5.08965 13.52 5.47965 13.91C5.86965 14.31 6.33965 14.5 6.87965 14.5C7.43965 14.5 7.90965 14.3 8.29965 13.91C8.69965 13.52 8.88965 13.05 8.88965 12.5C8.88965 11.95 8.68965 11.48 8.28965 11.09C8.10951 10.9033 7.89357 10.7548 7.65475 10.6534C7.41592 10.552 7.1591 10.4999 6.89965 10.5C6.34965 10.5 5.87965 10.7 5.48965 11.09C5.08965 11.48 4.88965 11.95 4.88965 12.5ZM10.4996 12.5C10.4996 13.05 10.6996 13.52 11.0796 13.91C11.4796 14.31 11.9496 14.5 12.4996 14.5C13.0396 14.5 13.5196 14.3 13.8996 13.91C14.2996 13.52 14.4996 13.05 14.4996 12.5C14.4996 11.95 14.2996 11.48 13.8996 11.09C13.7183 10.9021 13.5008 10.7529 13.2601 10.6515C13.0195 10.55 12.7608 10.4985 12.4996 10.5C11.9496 10.5 11.4596 10.7 11.0796 11.09C10.6796 11.48 10.4996 11.95 10.4996 12.5ZM16.0996 12.5C16.0996 13.05 16.2996 13.52 16.6696 13.91C17.0696 14.31 17.5496 14.5 18.0996 14.5C18.6696 14.5 19.1396 14.3 19.5296 13.91C19.9196 13.52 20.0996 13.05 20.0996 12.5C20.0996 11.95 19.8996 11.48 19.5296 11.09C19.3449 10.8983 19.1224 10.747 18.8763 10.6455C18.6303 10.5439 18.3658 10.4944 18.0996 10.5C17.5496 10.5 17.0596 10.7 16.6696 11.09C16.2896 11.48 16.0996 11.95 16.0996 12.5Z" fill="black"/>
</svg>
