<svg width="25" height="25" viewBox="0 0 25 25" fill="none" xmlns="http://www.w3.org/2000/svg">
<path fill-rule="evenodd" clip-rule="evenodd" d="M4.60039 11.56C4.60039 9.71676 5.33262 7.949 6.63599 6.64562C7.93937 5.34225 9.70713 4.61002 11.5504 4.61002C13.3936 4.61002 15.1614 5.34225 16.4648 6.64562C17.7682 7.949 18.5004 9.71676 18.5004 11.56C18.5004 13.4033 17.7682 15.171 16.4648 16.4744C15.1614 17.7778 13.3936 18.51 11.5504 18.51C9.70713 18.51 7.93937 17.7778 6.63599 16.4744C5.33262 15.171 4.60039 13.4033 4.60039 11.56ZM11.5404 3.51001C10.2495 3.51124 8.97775 3.82292 7.83254 4.41876C6.68734 5.01459 5.70222 5.87711 4.9603 6.93355C4.21838 7.98999 3.74142 9.20937 3.56964 10.4888C3.39786 11.7683 3.5363 13.0703 3.9733 14.285C4.41029 15.4997 5.13301 16.5915 6.0805 17.4683C7.02799 18.3451 8.17245 18.9812 9.41735 19.3229C10.6622 19.6646 11.9711 19.7019 13.2334 19.4316C14.4957 19.1613 15.6745 18.5915 16.6704 17.77L20.4204 21.52C20.4723 21.5725 20.534 21.6143 20.602 21.643C20.67 21.6717 20.743 21.6867 20.8169 21.6872C20.8907 21.6876 20.9639 21.6735 21.0322 21.6457C21.1006 21.6179 21.1629 21.5769 21.2154 21.525C21.2679 21.4731 21.3097 21.4114 21.3384 21.3434C21.3671 21.2754 21.3821 21.2024 21.3825 21.1286C21.383 21.0547 21.3689 20.9815 21.3411 20.9132C21.3133 20.8448 21.2723 20.7825 21.2204 20.73L17.4804 17C18.5398 15.8483 19.2407 14.4128 19.4971 12.8691C19.7535 11.3253 19.5544 9.74032 18.9242 8.30795C18.2939 6.87559 17.2599 5.65798 15.9485 4.80407C14.6371 3.95017 13.1053 3.497 11.5404 3.50001V3.51001Z" fill="black"/>
</svg>
