<svg width="24" height="24" viewBox="0 0 24 24" fill="none" xmlns="http://www.w3.org/2000/svg">
<path d="M18.2486 6.24001C17.9023 5.85987 17.4806 5.55608 17.0104 5.34804C16.5402 5.14 16.0317 5.03227 15.5175 5.03174C14.5233 5.03174 13.5697 5.42672 12.8666 6.12979C12.1636 6.83285 11.7686 7.78642 11.7686 8.7807C11.7686 9.07036 11.8017 9.36001 11.8348 9.64967C10.3475 9.56508 8.89432 9.17015 7.56879 8.49028C6.24326 7.81041 5.07469 6.86065 4.13823 5.70208C3.81567 6.27511 3.63146 6.91559 3.6003 7.57243C3.62512 8.89657 4.28719 10.0469 5.27202 10.709C4.68437 10.6922 4.11002 10.5302 3.6003 10.2373V10.3035C3.60334 11.1677 3.90356 12.0045 4.45056 12.6736C4.99757 13.3427 5.75807 13.8032 6.60443 13.9779C6.2734 14.0442 5.94237 14.0855 5.60305 14.1104L4.93271 14.0442C5.17072 14.7852 5.63297 15.434 6.25562 15.901C6.87826 16.368 7.63055 16.63 8.40857 16.651C7.0592 17.6736 5.41738 18.2364 3.72443 18.2566L2.85547 18.1904C4.51064 19.2414 6.4803 19.8621 8.59892 19.8621C15.4679 19.8621 19.2417 14.1517 19.2251 9.2276C19.2417 9.02898 19.2251 8.87174 19.2251 8.68967C19.965 8.1678 20.5996 7.51074 21.0955 6.75312C20.4168 7.0676 19.6886 7.26622 18.9437 7.34898C19.7233 6.88367 20.2994 6.14217 20.5575 5.27174C19.8624 5.71036 19.0596 6.01657 18.2155 6.20691L18.2486 6.24001Z" fill="#38A1F3"/>
</svg>
